<?xml version="1.0" encoding="UTF-8"?>
<svg version="1.1" xmlns="http://www.w3.org/2000/svg" width="500" height="500">
<path d="M0 0 C165 0 330 0 500 0 C500 165 500 330 500 500 C335 500 170 500 0 500 C0 335 0 170 0 0 Z " fill="#FEFEFE" transform="translate(0,0)"/>
<path d="M0 0 C0.8465918 -0.01039307 1.69318359 -0.02078613 2.56542969 -0.03149414 C8.48255427 0.05510084 11.96604716 1.15354716 16.25 5.4375 C17.87183763 15.58978228 12.93189354 24.4044781 7.25 32.4375 C3.14008565 37.62881089 -1.30364943 42.53498904 -5.75 47.4375 C-6.33410645 48.08477051 -6.91821289 48.73204102 -7.52001953 49.39892578 C-18.31884684 61.32095062 -29.65463636 72.00530885 -42.39453125 81.828125 C-45.32230302 84.0885067 -48.16645943 86.43458234 -51 88.8125 C-58.62476925 95.07928115 -66.70262289 100.73208903 -74.75 106.4375 C-75.92828369 107.27522949 -75.92828369 107.27522949 -77.13037109 108.12988281 C-131.09520328 146.4375 -131.09520328 146.4375 -140.75 146.4375 C-140.38985826 143.87218269 -140.02144967 142.68969792 -138.09765625 140.90234375 C-131.92267658 136.77513511 -125.62012238 132.89191932 -119.26635742 129.04858398 C-108.92821099 122.76940606 -98.83006447 116.12077716 -88.75 109.4375 C-87.64011719 108.70297607 -87.64011719 108.70297607 -86.5078125 107.95361328 C-71.44764908 97.93874886 -57.12172894 86.86681835 -43.0625 75.5 C-42.464375 75.01740723 -41.86625 74.53481445 -41.25 74.03759766 C-7.3833338 47.54994886 -7.3833338 47.54994886 11.5546875 10.65625 C11.44980293 8.23441461 11.44980293 8.23441461 9.25 6.4375 C6.60182601 6.23402448 4.08466416 6.15311752 1.4375 6.1875 C0.66414307 6.19716797 -0.10921387 6.20683594 -0.90600586 6.21679688 C-36.38148565 6.95089889 -69.00077332 25.84484549 -93.2890625 50.72265625 C-97.61175355 55.49133923 -101.5507299 60.52765937 -105.41503906 65.67138672 C-106.6600952 67.31855864 -107.93446318 68.94346033 -109.2109375 70.56640625 C-126.79801655 93.75972247 -143.77994737 127.56902617 -142.75 157.4375 C-141.77360749 158.63782021 -141.77360749 158.63782021 -139.95483398 158.52514648 C-131.81681272 158.00195836 -125.11574447 154.919276 -117.8125 151.5 C-116.52022497 150.90733319 -115.22765985 150.31529852 -113.93481445 149.72387695 C-104.37750238 145.32244477 -95.04269059 140.55244783 -85.79541016 135.53564453 C-80.65342034 132.77500116 -75.41616978 130.20266559 -70.17626953 127.63427734 C-68.34831738 126.73262495 -66.52445837 125.82266731 -64.70263672 124.90869141 C-61.32915227 123.21725211 -57.94664098 121.54500106 -54.5625 119.875 C-53.47437012 119.32537598 -52.38624023 118.77575195 -51.26513672 118.20947266 C-50.23533691 117.70593262 -49.20553711 117.20239258 -48.14453125 116.68359375 C-47.22518799 116.22654053 -46.30584473 115.7694873 -45.35864258 115.29858398 C-42.37249653 114.31289029 -40.72932567 114.55537208 -37.75 115.4375 C-38.23035429 121.42224194 -40.07625306 125.70042609 -42.9375 130.9375 C-43.36659668 131.73905518 -43.79569336 132.54061035 -44.23779297 133.36645508 C-49.99687124 143.96182494 -56.37948795 154.20243155 -62.75 164.4375 C-54.72714788 162.09133785 -46.81317846 159.47592572 -38.90234375 156.77929688 C-38.00644531 156.47701172 -37.11054688 156.17472656 -36.1875 155.86328125 C-34.97900391 155.45203003 -34.97900391 155.45203003 -33.74609375 155.0324707 C-31.75 154.4375 -31.75 154.4375 -29.75 154.4375 C-29.585 153.756875 -29.42 153.07625 -29.25 152.375 C-25.42624742 144.88681787 -17.42232695 140.28065113 -9.75 137.4375 C-0.68070761 134.8646511 8.25656567 134.03749804 17.64038086 133.90332031 C28.54585469 133.62051283 39.02522897 127.33569505 47.25 120.4375 C47.91 120.4375 48.57 120.4375 49.25 120.4375 C49.58064453 119.27734375 49.58064453 119.27734375 49.91796875 118.09375 C51.72068658 113.14552745 54.1169521 108.59475855 56.5625 103.9375 C57.2730957 102.55111328 57.2730957 102.55111328 57.99804688 101.13671875 C60.65796892 96.0497543 63.3716606 91.6761223 67.25 87.4375 C72.125 88.3125 72.125 88.3125 73.25 89.4375 C72.85905161 95.10625172 71.69900763 99.32652756 69.25 104.4375 C70.24 104.4375 71.23 104.4375 72.25 104.4375 C77.55498491 104.83046184 80.35435097 105.77795091 84.25 109.4375 C83.67770134 113.44359065 82.31310411 115.99899315 80.25 119.4375 C79.54329272 122.13004991 79.54329272 122.13004991 79.25 124.4375 C73.32771837 124.0821631 70.39979733 122.68161091 66.25 118.4375 C64.375 115.125 64.375 115.125 63.25 112.4375 C62.1652722 113.66543624 61.08229185 114.8949162 60 116.125 C59.39671875 116.80949219 58.7934375 117.49398437 58.171875 118.19921875 C57.22054687 119.30716797 57.22054687 119.30716797 56.25 120.4375 C55.30640625 121.50484375 55.30640625 121.50484375 54.34375 122.59375 C51.41459621 126.57215291 49.25139873 130.8617359 47 135.25 C46.54109375 136.13365234 46.0821875 137.01730469 45.609375 137.92773438 C44.48465361 140.09516621 43.36504294 142.26507776 42.25 144.4375 C42.91386719 144.004375 43.57773437 143.57125 44.26171875 143.125 C45.14472656 142.568125 46.02773438 142.01125 46.9375 141.4375 C47.80761719 140.880625 48.67773438 140.32375 49.57421875 139.75 C52.45577455 138.33656533 54.08867371 138.00665485 57.25 138.4375 C57.91 139.0975 58.57 139.7575 59.25 140.4375 C61.2431567 140.46125926 61.2431567 140.46125926 63.375 140.0625 C64.65375 139.85625 65.9325 139.65 67.25 139.4375 C67.49234375 138.65503906 67.7346875 137.87257812 67.984375 137.06640625 C68.31953125 136.05449219 68.6546875 135.04257813 69 134 C69.32484375 132.99066406 69.6496875 131.98132813 69.984375 130.94140625 C71.25 128.4375 71.25 128.4375 73.390625 127.58984375 C74.00421875 127.53957031 74.6178125 127.48929687 75.25 127.4375 C78.23464873 131.54139201 78.707712 134.40266798 78.25 139.4375 C77.25 141.625 77.25 141.625 76.25 143.4375 C76.25 144.7575 76.25 146.0775 76.25 147.4375 C77.85785777 146.84322612 79.46117709 146.23666412 81.0625 145.625 C81.95582031 145.28855469 82.84914063 144.95210937 83.76953125 144.60546875 C86.20711198 143.45769452 87.57278982 142.51937042 89.25 140.4375 C89.53875 139.57125 89.8275 138.705 90.125 137.8125 C91.25 135.4375 91.25 135.4375 93.75 134.5 C94.575 134.479375 95.4 134.45875 96.25 134.4375 C96.91 135.0975 97.57 135.7575 98.25 136.4375 C98.2265625 138.6015625 98.2265625 138.6015625 97.875 141.0625 C97.76414062 141.87976563 97.65328125 142.69703125 97.5390625 143.5390625 C97.39597656 144.47878906 97.39597656 144.47878906 97.25 145.4375 C98.13042969 144.81101563 99.01085937 144.18453125 99.91796875 143.5390625 C101.09095954 142.71327698 102.26414707 141.88777088 103.4375 141.0625 C104.01564453 140.65 104.59378906 140.2375 105.18945312 139.8125 C109.90781118 136.50698363 114.09169376 134.37119212 119.8125 133.625 C120.55628906 133.51542969 121.30007813 133.40585938 122.06640625 133.29296875 C125.08838159 133.49299216 126.20403382 134.20635808 128.25 136.4375 C128.859375 139.57421875 128.859375 139.57421875 129 143.125 C129.05671875 144.30449219 129.1134375 145.48398438 129.171875 146.69921875 C129.19765625 147.60285156 129.2234375 148.50648438 129.25 149.4375 C138.46543206 135.39867158 142.51553402 122.13298677 145.35546875 105.6796875 C145.65904297 104.00519531 145.65904297 104.00519531 145.96875 102.296875 C146.23075195 100.78818848 146.23075195 100.78818848 146.49804688 99.24902344 C147.30506342 96.23162001 148.52666864 94.02723798 150.25 91.4375 C154.125 92.3125 154.125 92.3125 155.25 93.4375 C157.34098662 109.41861205 149.91190252 125.34575231 143.25 139.4375 C143.87003906 139.14875 144.49007813 138.86 145.12890625 138.5625 C153.77921289 134.93617058 163.07516955 133.54508169 172.20703125 136.34375 C174.31057354 137.27129621 176.28630329 138.24544563 178.25 139.4375 C178.70439453 138.42429688 178.70439453 138.42429688 179.16796875 137.390625 C181.94481579 131.47807683 184.22815292 127.44842354 190.25 124.4375 C193.01367582 124.28590597 195.73532157 124.20608607 198.5 124.1875 C199.25152344 124.166875 200.00304687 124.14625 200.77734375 124.125 C206.43103965 124.08553266 210.45684544 125.11853215 214.9296875 128.83203125 C217.18627438 131.50896274 218.22107373 133.18680566 218.625 136.6875 C218.25 139.4375 218.25 139.4375 217.25 141.4375 C223.98833474 143.15129612 230.73785667 144.82021363 237.5 146.4375 C238.21309326 146.60862305 238.92618652 146.77974609 239.66088867 146.95605469 C243.33336316 147.81862 246.99828037 148.59214459 250.71875 149.21875 C251.79721191 149.40244141 251.79721191 149.40244141 252.89746094 149.58984375 C254.88243583 149.91806068 256.87084295 150.22532199 258.859375 150.53125 C262.58157456 151.52612362 264.52791475 152.74076005 267.25 155.4375 C268.0625 158.1875 268.0625 158.1875 268.25 160.4375 C266.27 161.4275 266.27 161.4275 264.25 162.4375 C263.86714844 161.49583984 263.86714844 161.49583984 263.4765625 160.53515625 C261.72816747 157.54506666 259.38405882 157.10053505 256.1796875 156.1484375 C252.04928966 155.14612762 247.88366911 154.38035855 243.70117188 153.63476562 C238.47133325 152.69582716 233.29714575 151.59167602 228.125 150.375 C227.42697266 150.21265869 226.72894531 150.05031738 226.00976562 149.88305664 C222.92503883 149.14808241 219.93217013 148.32906393 216.9296875 147.3046875 C213.00365403 146.03416355 210.07764883 146.76059303 206.24609375 148.1796875 C198.43452387 150.95537223 189.44868309 152.22248326 181.25 150.4375 C178.19768317 148.62036196 175.74884455 146.54451681 173.06640625 144.2265625 C167.5991762 140.75362025 161.45736019 141.74233183 155.25 142.4375 C154.03570312 142.55158203 154.03570312 142.55158203 152.796875 142.66796875 C147.76170911 143.51046698 144.6712783 146.27623584 141.109375 149.68359375 C136.49865353 154.0327827 131.64339628 156.76451092 125.25 157.4375 C124.26 156.7775 123.27 156.1175 122.25 155.4375 C121.86588725 152.827879 121.64706803 150.4316926 121.5625 147.8125 C121.52833984 147.10609375 121.49417969 146.3996875 121.45898438 145.671875 C121.37648692 143.92764312 121.31156665 142.18259605 121.25 140.4375 C112.11490907 141.96001515 106.42089671 147.93746111 100.05859375 154.328125 C96.73264234 156.82605791 94.35177522 157.17385067 90.25 157.4375 C89.26 155.4575 88.27 153.4775 87.25 151.4375 C85.71279297 152.10458984 85.71279297 152.10458984 84.14453125 152.78515625 C82.78414287 153.35745757 81.42344946 153.92903423 80.0625 154.5 C79.38896484 154.79455078 78.71542969 155.08910156 78.02148438 155.39257812 C74.08735565 157.02380223 71.32028698 158.02422204 67.25 156.4375 C66.04727181 154.03204362 66.14928528 152.48753047 66.1875 149.8125 C66.19652344 148.99523437 66.20554687 148.17796875 66.21484375 147.3359375 C66.23224609 146.39621094 66.23224609 146.39621094 66.25 145.4375 C61.4015777 146.12894598 61.4015777 146.12894598 57.84765625 149.2109375 C57.02404777 150.62659681 56.2090893 152.04731986 55.40234375 153.47265625 C52.45710477 158.4945383 48.64649871 159.75415824 43.25 161.1875 C39.48802957 162.08960516 36.11927542 162.57975277 32.25 162.4375 C32.0334375 163.19675781 31.816875 163.95601562 31.59375 164.73828125 C29.71517106 169.90983431 27.23352724 174.72062374 24.75 179.625 C24.21028564 180.6965332 23.67057129 181.76806641 23.11450195 182.87207031 C18.74563078 191.51843253 14.28740841 200.1132026 9.7265625 208.65966797 C8.29829816 211.3466375 6.88088999 214.03916289 5.46586609 216.73312378 C4.12826873 219.27625155 2.78424786 221.81595262 1.43911743 224.35510254 C0.77883404 225.60425144 0.12087909 226.8546343 -0.53457642 228.10632324 C-7.52267939 241.43984706 -7.52267939 241.43984706 -11.75 245.4375 C-13.07 245.4375 -14.39 245.4375 -15.75 245.4375 C-16.13188986 238.37253767 -15.05236005 233.37841828 -12.375 226.875 C-11.84132812 225.53284424 -11.84132812 225.53284424 -11.296875 224.16357422 C-10.13051801 221.2481845 -8.94038181 218.34315266 -7.75 215.4375 C-6.92401663 213.37909179 -6.09850134 211.3204957 -5.2734375 209.26171875 C8.52123276 175.16626724 8.52123276 175.16626724 20.25 163.4375 C20.70811675 161.46514667 20.70811675 161.46514667 20.875 159.3125 C21.060625 157.394375 21.060625 157.394375 21.25 155.4375 C20.57122803 155.6641333 19.89245605 155.8907666 19.19311523 156.12426758 C-19.18473363 168.86707766 -19.18473363 168.86707766 -28.75 166.4375 C-31.75 163.20519912 -31.75 163.20519912 -31.75 160.4375 C-56.23383719 165.39771872 -56.23383719 165.39771872 -74.52587891 180.54321289 C-76.43124295 184.28420174 -78.16160975 188.04936223 -79.71044922 191.95166016 C-81.13154193 195.34986728 -82.95227908 198.10758131 -85.0625 201.125 C-85.68125 202.02863281 -86.3 202.93226563 -86.9375 203.86328125 C-87.535625 204.71277344 -88.13375 205.56226563 -88.75 206.4375 C-89.36875 207.31792969 -89.9875 208.19835937 -90.625 209.10546875 C-92.63236691 211.91011646 -94.67941255 214.679195 -96.75 217.4375 C-97.14525879 217.96569336 -97.54051758 218.49388672 -97.94775391 219.03808594 C-126.76324414 257.31721333 -126.76324414 257.31721333 -142.8125 259.9375 C-146.81318365 259.25653257 -148.22920132 257.53448124 -150.75 254.4375 C-153.97055972 244.77582084 -152.8921974 230.63538319 -148.75 221.4375 C-148.35941406 220.4784375 -147.96882813 219.519375 -147.56640625 218.53125 C-141.79587218 205.58432936 -131.4628431 197.82198029 -119.75 190.4375 C-118.71617188 189.78136719 -117.68234375 189.12523437 -116.6171875 188.44921875 C-84.99448898 169.4375 -84.99448898 169.4375 -71.75 169.4375 C-71.35711792 168.14924316 -71.35711792 168.14924316 -70.95629883 166.83496094 C-69.7230653 163.36164019 -68.20890379 160.31449418 -66.44921875 157.078125 C-65.97184013 156.19420074 -65.97184013 156.19420074 -65.4848175 155.29241943 C-64.47353155 153.4216401 -63.45588693 151.55442173 -62.4375 149.6875 C-61.10579973 147.23560291 -59.77684056 144.78223257 -58.44921875 142.328125 C-58.12976288 141.73841919 -57.81030701 141.14871338 -57.48117065 140.5411377 C-54.79308966 135.56048864 -52.23312467 130.52301001 -49.75 125.4375 C-50.47662842 125.78828613 -51.20325684 126.13907227 -51.9519043 126.50048828 C-52.98226807 126.99790527 -54.01263184 127.49532227 -55.07421875 128.0078125 C-56.2338916 128.56774902 -57.39356445 129.12768555 -58.58837891 129.70458984 C-61.18531783 130.95833346 -63.78269839 132.21115639 -66.38037109 133.46337891 C-73.08250891 136.69514721 -79.77966372 139.93640908 -86.46484375 143.203125 C-99.12517979 149.38077932 -111.79509677 155.42618748 -124.87866211 160.66748047 C-126.75273386 161.43862493 -128.58922034 162.27404782 -130.43359375 163.11328125 C-133.5066971 164.34035079 -135.66132247 164.89583161 -138.9375 164.9375 C-140.16533203 164.98390625 -140.16533203 164.98390625 -141.41796875 165.03125 C-144.91535501 164.1407932 -145.91675355 162.48052396 -147.75 159.4375 C-152.96437707 131.2079414 -132.47332724 94.93189937 -117.26391602 72.59130859 C-111.55768417 64.47320227 -105.29350534 56.88751006 -98.75 49.4375 C-98.12609375 48.69113281 -97.5021875 47.94476563 -96.859375 47.17578125 C-74.06496866 20.06748025 -35.554058 0.38925453 0 0 Z " fill="#282828" transform="translate(212.75,80.5625)"/>
<path d="M0 0 C-1.28710452 3.42359226 -2.77146235 6.47661065 -4.6875 9.58984375 C-5.21633789 10.44980957 -5.74517578 11.30977539 -6.29003906 12.19580078 C-7.13646973 13.55294189 -7.13646973 13.55294189 -8 14.9375 C-8.58233398 15.87319824 -9.16466797 16.80889648 -9.76464844 17.77294922 C-17.10974693 29.47882263 -25.08655666 40.42824162 -34 51 C-34.90937929 52.09591864 -35.81821027 53.19229243 -36.7265625 54.2890625 C-53.18310793 74.07616699 -53.18310793 74.07616699 -63 79 C-66.3046875 79.1875 -66.3046875 79.1875 -69 79 C-73.25704357 71.45424866 -72.25784856 59.89318554 -70.49755859 51.64599609 C-65.52693387 34.88194997 -51.37523345 24.03775961 -36.58984375 15.9375 C-34.71065149 14.94891941 -32.82637932 13.96994331 -30.9375 13 C-29.94468018 12.48598633 -28.95186035 11.97197266 -27.92895508 11.44238281 C-5.52485594 0 -5.52485594 0 0 0 Z " fill="#FCFCFC" transform="translate(137,256)"/>
<path d="M0 0 C0 1.65 0 3.3 0 5 C-5.68041091 7.61033972 -11.42031971 9.39034826 -17.4375 11.0625 C-18.34048828 11.31837891 -19.24347656 11.57425781 -20.17382812 11.83789062 C-22.77912768 12.57175125 -25.38840481 13.28890944 -28 14 C-28.73621582 14.20592773 -29.47243164 14.41185547 -30.23095703 14.62402344 C-34.2401933 15.70090411 -37.85272245 16.22868194 -42 16.125 C-42.94875 16.10695312 -43.8975 16.08890625 -44.875 16.0703125 C-45.57625 16.04710937 -46.2775 16.02390625 -47 16 C-47.33 15.01 -47.66 14.02 -48 13 C-43.82661567 11.47865067 -39.649687 9.96756443 -35.46948242 8.46508789 C-34.05380306 7.95473828 -32.63905331 7.44180106 -31.2253418 6.92602539 C-6.27605986 -2.16979021 -6.27605986 -2.16979021 0 0 Z " fill="#F4F4F4" transform="translate(235,225)"/>
<path d="M0 0 C2.9375 2.0625 2.9375 2.0625 5 4 C4.42770134 8.00609065 3.06310411 10.56149315 1 14 C0.29329272 16.69254991 0.29329272 16.69254991 0 19 C-6.15423406 18.63074596 -8.72703501 17.17122773 -13 13 C-14.50934217 9.98131566 -14.17510672 7.32702771 -14 4 C-10.33341978 -1.49987033 -6.16196208 -1.54049052 0 0 Z " fill="#2B2B2B" transform="translate(292,186)"/>
<path d="M0 0 C0 3.62595819 -1.01733032 5.40742734 -2.640625 8.64453125 C-3.49672363 10.35793701 -3.49672363 10.35793701 -4.37011719 12.10595703 C-4.99628076 13.34170659 -5.62291839 14.57721605 -6.25 15.8125 C-6.88447245 17.07143552 -7.5189123 18.33038748 -8.15332031 19.58935547 C-12.23670111 27.66322499 -16.43020614 35.67472681 -20.75 43.625 C-21.25047852 44.54772705 -21.75095703 45.4704541 -22.26660156 46.42114258 C-25.74324387 52.74324387 -25.74324387 52.74324387 -28 55 C-25.15392991 35.07750938 -14.17494057 14.17494057 0 0 Z " fill="#EBEBEB" transform="translate(239,244)"/>
<path d="M0 0 C0.33 0.66 0.66 1.32 1 2 C-0.05217889 4.56000219 -1.15440298 6.93313482 -2.4375 9.375 C-2.79714844 10.06021729 -3.15679687 10.74543457 -3.52734375 11.45141602 C-6.50238254 16.77588322 -9.03922344 19.19047854 -15 21 C-14.96744792 19.046875 -14.93489583 17.09375 -14.90234375 15.140625 C-14.94469744 12.66000824 -14.94469744 12.66000824 -16 9 C-10.72 6.03 -5.44 3.06 0 0 Z " fill="#F4F4F4" transform="translate(255,211)"/>
<path d="M0 0 C0.66 2.31 1.32 4.62 2 7 C0.40089132 8.00806851 -1.20448262 9.00620385 -2.8125 10 C-4.15248047 10.8353125 -4.15248047 10.8353125 -5.51953125 11.6875 C-8 13 -8 13 -11 13 C-10.59709958 7.35939411 -8.78085674 4.96528877 -5 1 C-3 0 -3 0 0 0 Z " fill="#F2F2F2" transform="translate(408,211)"/>
<path d="M0 0 C0 0.66 0 1.32 0 2 C-3.93177905 3.53592773 -7.8712275 5.05111744 -11.8125 6.5625 C-12.93205078 7.00013672 -14.05160156 7.43777344 -15.20507812 7.88867188 C-16.27822266 8.29794922 -17.35136719 8.70722656 -18.45703125 9.12890625 C-19.9416687 9.70233765 -19.9416687 9.70233765 -21.45629883 10.28735352 C-24 11 -24 11 -27 10 C-18.48012922 3.90592576 -10.72287433 0 0 0 Z " fill="#E5E5E5" transform="translate(218,221)"/>
<path d="M0 0 C-1.81854504 3.51585374 -3.89454567 4.52473178 -7.5 5.75 C-10.2242782 6.60360717 -12.1161841 7 -15 7 C-13.73721868 3.21165605 -12.47887048 2.77988722 -9 1 C-5.96102732 -0.04464686 -3.20065533 -0.08890709 0 0 Z " fill="#EAEAEA" transform="translate(264,230)"/>
<path d="M0 0 C2.7019433 0.36512747 4.58390852 0.69869237 6.8125 2.3125 C8 4 8 4 8 8 C5.125 7.375 5.125 7.375 2 6 C0.625 2.875 0.625 2.875 0 0 Z " fill="#EFEFEF" transform="translate(417,211)"/>
</svg>
